<svg width="500" height="500" viewBox="0 0 500 500" fill="none" xmlns="http://www.w3.org/2000/svg">
<g clip-path="url(#clip0)">
<path d="M475.188 264.829C476.241 254.155 468.442 244.648 457.768 243.595C447.094 242.542 437.587 250.341 436.534 261.015C435.481 271.688 443.28 281.195 453.954 282.248C464.628 283.302 474.134 275.503 475.188 264.829Z" fill="#F5CDD9"/>
<path d="M46.2092 168.318C54.5405 166.328 59.6805 157.96 57.6897 149.629C55.699 141.298 47.3314 136.158 39.0002 138.148C30.669 140.139 25.529 148.507 27.5197 156.838C29.5104 165.169 37.878 170.309 46.2092 168.318Z" fill="#F5CDD9"/>
<path d="M378.311 137.009C397.812 137.009 413.621 121.2 413.621 101.699C413.621 82.1975 397.812 66.3887 378.311 66.3887C358.81 66.3887 343.001 82.1975 343.001 101.699C343.001 121.2 358.81 137.009 378.311 137.009Z" fill="#F5CDD9"/>
<path d="M62.6813 457.919H417.371C433.351 447.259 456.071 434.989 464.581 410.129C484.731 351.269 437.281 330.329 411.441 301.159C385.601 271.989 439.071 259.909 431.921 197.099C428.241 164.789 385.061 135.259 340.901 150.789C296.741 166.319 290.331 147.839 269.861 110.169C246.061 66.3785 144.411 42.6285 85.4913 121.329C26.5613 200.019 83.4113 259.649 76.7413 287.789C70.0813 315.929 22.5913 330.439 19.2113 384.599C17.2413 415.979 28.8413 444.069 62.6813 457.919Z" fill="#F5CDD9"/>
<path d="M89.4813 456.369C83.8813 457.839 58.5313 462.039 58.9413 441.849C59.1513 431.539 56.1413 431.909 50.1013 427.869C44.0613 423.829 44.2013 421.249 44.7313 415.479C45.2613 409.709 39.5113 412.499 35.6813 404.919C31.1013 395.839 36.6213 389.069 45.5213 387.439C54.4313 385.809 54.1713 395.419 57.7113 398.279C61.2513 401.139 66.1413 394.989 72.9413 403.329C77.3813 408.779 70.4913 421.209 77.0213 420.059" stroke="#D39AAF" stroke-miterlimit="10"/>
<path d="M77.7913 438.399C69.0913 426.639 59.9013 415.249 50.3013 404.219C49.6713 403.489 48.6113 404.559 49.2413 405.279C58.7613 416.219 67.8713 427.499 76.4913 439.159C77.0613 439.929 78.3613 439.179 77.7913 438.399Z" fill="#D39AAF"/>
<path d="M63.0313 403.679C62.7113 408.479 62.3913 413.289 62.0713 418.089C62.0213 418.769 61.9813 419.449 61.9313 420.129C62.1813 419.879 62.4313 419.629 62.6813 419.379C58.2713 419.749 53.8613 420.109 49.4613 420.479C48.5013 420.559 48.5013 422.059 49.4613 421.979C53.8713 421.609 58.2813 421.249 62.6813 420.879C63.1113 420.839 63.4013 420.559 63.4313 420.129C63.7513 415.329 64.0713 410.519 64.3913 405.719C64.4413 405.039 64.4813 404.359 64.5313 403.679C64.6013 402.719 63.1013 402.719 63.0313 403.679Z" fill="#D39AAF"/>
<path d="M52.0012 336.749C32.1312 326.389 29.2112 300.959 50.9012 288.319C73.3912 275.209 91.8112 297.429 94.3812 314.049C96.3612 326.869 87.3912 335.819 110.721 345.219C134.051 354.619 130.451 366.289 125.651 388.599C120.861 410.919 136.621 402.739 148.881 421.569C158.591 436.499 144.941 451.719 138.861 457.399L91.1412 457.169C89.5912 456.259 88.1112 455.239 86.7212 454.099C71.3112 441.499 77.4312 421.599 79.0312 406.099C80.7612 389.329 56.6512 396.829 47.0512 375.309C37.4512 353.799 64.6412 343.339 52.0012 336.749Z" stroke="#D39AAF" stroke-miterlimit="10"/>
<path d="M130.471 456.699C128.551 452.449 126.621 448.209 124.691 443.959C119.941 433.509 115.171 423.069 110.391 412.629C104.291 399.329 98.1612 386.039 91.9912 372.769C86.0312 359.959 80.0312 347.159 73.9112 334.419C69.5912 325.439 65.2912 316.419 60.5712 307.639C60.2112 306.969 59.8412 306.289 59.4712 305.619C59.0012 304.779 57.7012 305.529 58.1712 306.379C62.6812 314.439 66.6512 322.819 70.6712 331.129C76.6912 343.579 82.5712 356.089 88.4212 368.619C94.6712 381.999 100.861 395.409 107.021 408.829C112.051 419.779 117.061 430.749 122.051 441.719C123.651 445.229 125.241 448.739 126.831 452.249C127.571 453.889 128.211 455.659 129.091 457.229C129.131 457.299 129.161 457.379 129.191 457.449C129.571 458.339 130.871 457.579 130.471 456.699Z" fill="#D39AAF"/>
<path d="M86.2112 361.749C76.9612 361.259 67.7212 360.769 58.4712 360.279C57.1612 360.209 55.8612 360.139 54.5512 360.069C53.5912 360.019 53.5912 361.519 54.5512 361.569C63.8012 362.059 73.0412 362.549 82.2912 363.039C83.6012 363.109 84.9012 363.179 86.2112 363.249C87.1712 363.299 87.1712 361.799 86.2112 361.749Z" fill="#D39AAF"/>
<path d="M118.181 430.878C107.761 429.758 97.3512 428.628 86.9312 427.508C85.4812 427.348 84.0212 427.198 82.5712 427.038C81.6112 426.938 81.6212 428.438 82.5712 428.538C92.9912 429.658 103.401 430.788 113.821 431.908C115.271 432.068 116.731 432.218 118.181 432.378C119.141 432.488 119.131 430.988 118.181 430.878Z" fill="#D39AAF"/>
<path d="M119.911 355.659C117.811 360.179 115.711 364.689 113.611 369.209C110.281 376.369 106.951 383.539 103.621 390.699C102.851 392.359 102.071 394.029 101.301 395.689C100.901 396.559 102.191 397.319 102.601 396.449C104.701 391.929 106.801 387.419 108.901 382.899C112.231 375.739 115.561 368.569 118.891 361.409C119.661 359.749 120.441 358.079 121.211 356.419C121.611 355.549 120.321 354.789 119.911 355.659Z" fill="#D39AAF"/>
<path d="M70.3313 311.529C71.8913 313.699 74.9413 314.289 77.1513 312.829C79.3613 311.379 79.8813 308.439 78.3313 306.259C76.7713 304.089 73.7213 303.499 71.5113 304.959C69.2913 306.419 68.7713 309.359 70.3313 311.529Z" stroke="#D39AAF" stroke-miterlimit="10"/>
<path d="M72.3013 320.929C72.3013 322.379 73.5213 323.549 75.0413 323.549C76.5513 323.549 77.7813 322.379 77.7813 320.929C77.7813 319.479 76.5613 318.309 75.0413 318.309C73.5313 318.309 72.3013 319.489 72.3013 320.929Z" stroke="#D39AAF" stroke-miterlimit="10"/>
<path d="M58.5413 375.989C58.5413 378.229 60.4313 380.049 62.7713 380.049C65.1113 380.049 67.0013 378.229 67.0013 375.989C67.0013 373.749 65.1113 371.929 62.7713 371.929C60.4413 371.939 58.5413 373.749 58.5413 375.989Z" stroke="#D39AAF" stroke-miterlimit="10"/>
<path d="M475.741 383.209C482.571 377.649 484.211 360.459 474.471 355.239C462.441 348.789 449.841 358.769 448.251 369.049C447.031 376.969 453.621 386.759 438.151 388.309C423.671 389.759 422.291 397.579 428.921 415.119C433.911 428.319 422.141 423.859 414.561 435.499C408.561 444.729 416.991 454.139 420.751 457.649L450.241 457.509C451.201 456.949 452.111 456.319 452.971 455.609C462.501 447.819 458.711 435.519 457.721 425.939C456.651 415.579 471.551 420.209 477.481 406.909C483.441 393.599 468.911 388.769 475.741 383.209Z" stroke="#D39AAF" stroke-miterlimit="10"/>
<path d="M427.001 457.809C431.111 448.719 435.251 439.649 439.401 430.589C446.821 414.409 454.271 398.239 461.981 382.189C464.841 376.229 467.661 370.219 470.891 364.439C471.361 363.599 470.071 362.839 469.591 363.679C466.811 368.649 464.361 373.819 461.881 378.939C458.161 386.639 454.521 394.379 450.901 402.129C443.881 417.169 436.971 432.249 430.091 447.359C428.621 450.589 427.161 453.809 425.701 457.039C425.311 457.929 426.601 458.689 427.001 457.809Z" fill="#D39AAF"/>
<path d="M453.301 399.729C459.001 399.429 464.701 399.129 470.411 398.819C471.231 398.779 472.051 398.729 472.871 398.689C473.831 398.639 473.841 397.139 472.871 397.189C467.171 397.489 461.471 397.789 455.761 398.099C454.941 398.139 454.121 398.189 453.301 398.229C452.341 398.279 452.341 399.779 453.301 399.729Z" fill="#D39AAF"/>
<path d="M433.551 442.459C439.961 441.769 446.371 441.079 452.791 440.389C453.711 440.289 454.641 440.189 455.561 440.089C456.511 439.989 456.521 438.489 455.561 438.589C449.151 439.279 442.741 439.969 436.321 440.659C435.401 440.759 434.471 440.859 433.551 440.959C432.601 441.059 432.591 442.559 433.551 442.459Z" fill="#D39AAF"/>
<path d="M429.221 392.899C433.221 400.829 437.211 408.769 441.211 416.699C441.781 417.839 442.351 418.969 442.931 420.109C443.361 420.969 444.661 420.209 444.231 419.349C440.231 411.419 436.241 403.479 432.241 395.549C431.671 394.409 431.101 393.279 430.521 392.139C430.081 391.279 428.791 392.039 429.221 392.899Z" fill="#D39AAF"/>
<path d="M459.951 366.769C458.991 368.119 457.331 368.629 456.231 367.909C455.131 367.189 455.021 365.519 455.971 364.169C456.931 362.819 458.591 362.309 459.691 363.029C460.791 363.749 460.901 365.419 459.951 366.769Z" stroke="#D39AAF" stroke-miterlimit="10"/>
<path d="M470.401 407.319C470.401 408.699 469.231 409.829 467.791 409.829C466.351 409.829 465.181 408.709 465.181 407.319C465.181 405.939 466.351 404.809 467.791 404.809C469.231 404.809 470.401 405.939 470.401 407.319Z" stroke="#D39AAF" stroke-miterlimit="10"/>
<path d="M422.081 405.759H304.081V457.359H422.081V405.759Z" fill="#F5CDD9" stroke="#D39AAF" stroke-miterlimit="10"/>
<path d="M427.741 399.429H298.431V411.399H427.741V399.429Z" fill="#F5CDD9" stroke="#D39AAF" stroke-miterlimit="10"/>
<path d="M189.401 389.909H71.4013V457.369H189.401V389.909Z" fill="#F5CDD9" stroke="#D39AAF" stroke-miterlimit="10"/>
<path d="M195.061 384.119H65.7513V396.089H195.061V384.119Z" fill="#F5CDD9" stroke="#D39AAF" stroke-miterlimit="10"/>
<path d="M306.071 367.708H188.071V457.358H306.071V367.708Z" fill="#F5CDD9" stroke="#D39AAF" stroke-miterlimit="10"/>
<path d="M311.731 359.639H182.421V371.609H311.731V359.639Z" fill="#F5CDD9" stroke="#D39AAF" stroke-miterlimit="10"/>
<path d="M258.722 419.407V423.535H240.875V419.407H247.411V400.601C247.411 399.857 247.433 399.091 247.478 398.303L242.838 402.185C242.57 402.393 242.302 402.527 242.035 402.586C241.782 402.631 241.536 402.631 241.298 402.586C241.075 402.542 240.875 402.467 240.696 402.363C240.518 402.244 240.384 402.118 240.295 401.984L238.554 399.597L248.393 391.231H252.922V419.407H258.722Z" fill="#D39AAF"/>
<path d="M214.281 281.889C212.561 280.819 211.361 278.839 211.141 276.839C210.881 274.509 212.221 273.009 213.061 270.989C214.231 268.199 214.401 264.899 212.201 262.669C211.311 261.769 209.371 262.079 209.141 263.479C208.941 264.729 209.021 265.759 208.951 267.019C208.861 268.769 208.161 269.909 207.421 271.459C206.531 273.309 206.161 275.119 206.411 277.159C206.911 281.169 209.321 283.629 212.911 285.099C214.821 285.869 215.901 282.899 214.281 281.889Z" fill="#EAAE35"/>
<path d="M275.841 203.959C273.541 203.469 272.601 206.069 272.981 207.979C273.351 209.839 274.921 211.169 275.701 212.839C276.961 215.549 276.011 217.619 275.681 220.349C275.511 221.719 277.551 222.469 278.411 221.479C280.241 219.389 280.381 216.389 279.731 213.759C279.001 210.779 274.561 207.579 276.121 204.669C276.271 204.409 276.161 204.029 275.841 203.959Z" fill="#EAAE35"/>
<path d="M230.373 138.296C228.119 137.623 226.974 140.139 227.2 142.074C227.419 143.957 228.878 145.409 229.521 147.136C230.56 149.938 229.447 151.926 228.9 154.62C228.621 155.972 230.594 156.883 231.53 155.965C233.522 154.029 233.902 151.05 233.465 148.376C232.976 145.347 228.807 141.802 230.595 139.026C230.765 138.779 230.686 138.391 230.373 138.296Z" fill="#EAAE35"/>
<path d="M289.591 342.949C288.891 340.319 296.681 335.669 298.271 333.529C300.141 331.009 301.021 328.269 301.021 325.149C301.021 321.779 295.781 322.249 296.331 325.779C297.131 330.879 292.331 334.169 288.961 336.999C286.791 338.829 285.471 340.999 286.281 343.859C286.891 345.979 290.161 345.089 289.591 342.949Z" fill="#EAAE35"/>
<path d="M414.371 243.679C412.631 246.779 413.131 249.869 415.171 252.729C416.251 254.239 417.671 255.449 418.771 256.929C420.681 259.499 420.461 261.549 420.591 264.579C420.711 267.389 424.421 267.779 425.351 265.219C426.491 262.089 425.551 258.429 423.801 255.679C422.081 252.979 415.911 249.259 417.631 245.589C418.651 243.409 415.581 241.519 414.371 243.679Z" fill="#EAAE35"/>
<path d="M420.841 182.999C420.901 181.369 424.271 179.499 425.331 178.299C426.481 176.999 427.411 175.509 428.111 173.919C429.591 170.549 430.211 166.479 428.701 163.049C428.021 161.499 425.611 162.349 425.621 163.879C425.661 168.439 425.951 172.319 422.901 176.169C421.081 178.479 417.941 179.719 417.941 182.989C417.941 184.869 420.771 184.859 420.841 182.999Z" fill="#EAAE35"/>
<path d="M82.1539 209.172C81.3939 205.262 88.0039 205.002 90.2939 204.172C91.8839 203.602 93.3639 202.762 94.7139 201.742C97.8039 199.382 99.8538 196.202 100.944 192.502C101.674 190.002 97.6839 188.912 97.0539 191.432C96.3639 194.172 95.0339 196.592 92.9239 198.502C90.5139 200.672 87.8438 201.142 84.8738 202.102C81.2438 203.272 78.2339 205.902 79.1739 210.012C79.6139 211.952 82.5339 211.112 82.1539 209.172Z" fill="#EAAE35"/>
<path d="M115.261 75.2887C113.171 79.6687 114.341 83.7587 116.571 87.8587C120.641 95.3487 121.351 100.339 116.911 107.879C115.271 110.669 119.271 113.979 121.501 111.419C124.801 107.619 126.071 102.279 125.431 97.3087C125.061 94.4387 124.081 91.9187 122.581 89.4587C120.301 85.7087 115.861 81.8887 118.051 76.9187C118.861 75.0587 116.161 73.3987 115.261 75.2887Z" fill="#EAAE35"/>
<path d="M320.391 71.859C319.111 70.839 317.861 69.789 316.861 68.489C314.721 65.699 315.671 63.229 317.151 60.339C318.771 57.189 319.781 54.349 318.871 50.829C317.381 51.699 315.881 52.569 314.391 53.439C314.671 53.729 314.951 54.019 315.241 54.309C316.941 56.059 319.571 54.229 319.121 52.049C319.041 51.639 318.951 51.239 318.871 50.829C318.181 47.469 312.861 48.879 313.701 52.249C314.961 57.289 309.091 61.429 310.311 66.869C311.201 70.809 314.511 73.329 317.931 75.039C319.861 75.979 322.301 73.379 320.391 71.859Z" fill="#EAAE35"/>
<path d="M303.721 258.058C303.211 261.628 304.471 264.289 306.681 267.079C308.141 268.919 309.631 270.519 310.321 272.829C310.931 274.849 310.601 276.519 311.591 278.409C312.391 279.939 314.561 279.749 315.401 278.409C317.151 275.639 315.921 271.909 314.481 269.189C312.591 265.619 307.371 262.939 307.731 258.609C307.921 256.329 304.051 255.768 303.721 258.058Z" fill="#BC8FF1"/>
<path d="M286.113 156.464C285.603 160.034 286.863 162.694 289.073 165.484C290.533 167.324 292.023 168.924 292.713 171.234C293.323 173.254 292.993 174.924 293.983 176.814C294.783 178.344 296.953 178.154 297.793 176.814C299.543 174.044 298.313 170.314 296.873 167.594C294.983 164.024 289.763 161.344 290.123 157.014C290.313 154.734 286.443 154.174 286.113 156.464Z" fill="#BC8FF1"/>
<path d="M230.231 337.219C229.111 328.119 240.301 325.489 245.541 320.419C249.061 316.999 251.751 311.419 249.011 306.809C247.841 304.859 244.571 305.619 244.631 307.999C244.871 316.669 238.731 318.989 232.741 323.819C228.361 327.349 225.631 332.019 226.591 337.709C226.931 339.749 230.491 339.299 230.231 337.219Z" fill="#BC8FF1"/>
<path d="M183.371 32.6588C183.171 36.8988 185.361 39.8088 187.731 43.1088C189.331 45.3388 190.511 47.1688 189.921 49.9888C189.601 51.5088 189.221 52.2388 189.981 53.7688C190.391 54.5888 191.411 55.1188 192.301 55.0988C192.431 55.0988 192.571 55.0988 192.701 55.0888C193.751 55.0688 194.941 54.3188 195.161 53.2188C195.181 53.1088 195.201 53.0088 195.221 52.8988C195.691 50.4588 193.031 48.9188 191.151 50.5288C191.071 50.5988 190.981 50.6688 190.901 50.7388C191.931 50.6088 192.961 50.4688 193.991 50.3388C193.881 50.2488 193.771 50.1688 193.661 50.0788C193.981 51.3088 194.301 52.5288 194.631 53.7588C196.061 50.6888 196.331 47.8188 194.811 44.6188C192.831 40.4388 187.121 37.4588 186.811 32.6488C186.661 30.4588 183.471 30.4388 183.371 32.6588Z" fill="#BC8FF1"/>
<path d="M400.201 80.0585C400.451 73.7885 406.111 73.4885 409.621 69.6985C411.961 67.1785 413.601 63.0785 411.861 59.8885C410.841 58.0185 408.341 58.7085 407.681 60.4385C406.811 62.7085 407.241 64.9985 405.271 66.8385C403.801 68.2185 401.691 68.8385 400.121 70.1185C397.101 72.5785 395.711 76.2185 395.761 80.0585C395.791 82.9285 400.081 82.9185 400.201 80.0585Z" fill="#BC8FF1"/>
<path d="M459.061 174.909C454.351 179.229 460.721 185.159 456.581 189.499C454.351 191.829 448.201 194.249 451.171 198.429C452.011 199.609 453.491 199.879 454.601 198.869C455.961 197.639 456.761 196.119 458.241 194.919C459.741 193.709 460.991 192.549 461.861 190.779C462.651 189.159 463.011 187.389 462.881 185.579C462.721 183.349 459.731 179.239 461.561 177.389C463.151 175.779 460.731 173.379 459.061 174.909Z" fill="#BC8FF1"/>
<path d="M38.7913 188.689C40.0813 192.729 44.5713 194.409 45.7213 198.369C47.1513 203.289 40.9913 206.279 43.0213 211.079C43.8213 212.989 47.3213 213.789 47.7513 211.079C48.5413 206.069 52.2313 203.109 50.7013 197.619C49.3113 192.619 44.0313 191.609 42.1613 187.279C41.3313 185.359 38.1613 186.729 38.7913 188.689Z" fill="#BC8FF1"/>
<path d="M38.0113 273.749C38.1413 270.749 42.3813 269.189 44.1713 267.149C45.8613 265.229 47.4013 262.529 46.9913 259.929C46.8213 258.849 45.0513 258.629 44.6013 259.619C43.9213 261.109 43.8413 262.759 42.9913 264.189C42.0113 265.839 40.5313 266.859 39.0613 268.029C37.1213 269.569 35.5313 271.149 35.4513 273.759C35.3913 275.409 37.9313 275.399 38.0113 273.749Z" fill="#BC8FF1"/>
<path d="M166.551 102.959C167.201 100.949 169.611 99.6885 170.951 98.1485C172.011 96.9185 172.901 95.5985 173.491 94.0785C174.691 91.0285 175.101 86.5585 173.221 83.7085C171.861 81.6385 168.731 82.9485 169.251 85.3785C170.091 89.2885 171.301 92.5085 168.771 96.2485C167.261 98.4685 164.831 99.5485 164.051 102.269C163.591 103.889 166.041 104.539 166.551 102.959Z" fill="#BC8FF1"/>
<path d="M210.809 209.692C211.291 207.636 213.589 206.181 214.797 204.536C215.752 203.222 216.53 201.833 216.992 200.27C217.936 197.131 217.976 192.643 215.867 189.957C214.341 188.007 211.33 189.571 212.048 191.949C213.208 195.777 214.68 198.886 212.467 202.822C211.146 205.159 208.813 206.436 208.261 209.211C207.936 210.864 210.431 211.309 210.809 209.692Z" fill="#BC8FF1"/>
<path d="M234.021 213.599C232.661 216.519 233.111 219.189 235.031 221.779C236.081 223.189 237.491 224.289 238.741 225.509C241.031 227.759 241.011 229.099 240.331 231.999C240.061 233.159 240.491 234.749 241.671 235.299C241.861 235.389 242.041 235.469 242.231 235.559C243.591 236.189 245.441 235.759 245.831 234.099C246.591 230.849 246.731 228.029 244.691 225.189C242.471 222.099 235.341 219.479 236.981 214.849C237.601 213.129 234.801 211.919 234.021 213.599Z" fill="#459C90"/>
<path d="M164.785 128.805C163.425 131.725 163.875 134.395 165.795 136.985C166.845 138.395 168.255 139.495 169.505 140.715C171.795 142.965 171.775 144.305 171.095 147.205C170.825 148.365 171.255 149.955 172.435 150.505C172.625 150.595 172.805 150.675 172.995 150.765C174.355 151.395 176.205 150.965 176.595 149.305C177.355 146.055 177.495 143.235 175.455 140.395C173.235 137.305 166.105 134.685 167.745 130.055C168.365 128.335 165.565 127.125 164.785 128.805Z" fill="#459C90"/>
<path d="M241.493 66.8948C239.787 69.627 239.907 72.332 241.497 75.1369C242.367 76.6645 243.632 77.9283 244.724 79.2917C246.723 81.8043 246.539 83.1318 245.511 85.9272C245.101 87.0456 245.334 88.6761 246.438 89.366C246.615 89.4785 246.784 89.5799 246.962 89.6924C248.235 90.4836 250.124 90.2826 250.713 88.6826C251.864 85.5496 252.347 82.7677 250.669 79.7C248.842 76.3622 242.085 72.8919 244.278 68.4966C245.103 66.8651 242.472 65.3225 241.493 66.8948Z" fill="#459C90"/>
<path d="M318.471 110.509C317.441 106.059 324.121 104.629 326.931 103.089C329.551 101.649 331.481 99.6187 332.341 96.7287C333.311 93.4587 327.891 92.0587 327.301 95.3387C326.531 99.6187 320.931 100.449 318.011 102.909C315.491 105.029 314.061 108.189 315.141 111.419C315.851 113.529 318.981 112.689 318.471 110.509Z" fill="#459C90"/>
<path d="M64.3213 55.1789C63.8113 58.0789 64.9913 60.4289 67.3013 62.1989C68.4513 63.0789 69.9613 63.7489 70.5713 65.1389C71.2313 66.6489 70.7113 68.1089 71.6813 69.5689C72.6813 71.0689 74.9413 71.2289 75.9113 69.5689C77.3413 67.1289 76.3813 63.4989 74.7213 61.3389C73.9213 60.2889 72.8713 59.5389 71.7613 58.8389C70.6413 58.1389 68.5513 57.3589 68.6513 55.7589C68.8213 53.3089 64.7513 52.7089 64.3213 55.1789Z" fill="#459C90"/>
<path d="M280.491 275.899C280.491 278.379 278.481 280.389 276.001 280.389C273.521 280.389 271.511 278.379 271.511 275.899C271.511 273.419 273.521 271.409 276.001 271.409C278.481 271.409 280.491 273.419 280.491 275.899Z" fill="#459C90"/>
<path d="M208.691 236.319C208.691 237.909 207.401 239.199 205.811 239.199C204.221 239.199 202.931 237.909 202.931 236.319C202.931 234.729 204.221 233.439 205.811 233.439C207.401 233.439 208.691 234.729 208.691 236.319Z" fill="#459C90"/>
<path d="M396.771 192.619C398.395 192.619 399.711 191.302 399.711 189.679C399.711 188.055 398.395 186.739 396.771 186.739C395.148 186.739 393.831 188.055 393.831 189.679C393.831 191.302 395.148 192.619 396.771 192.619Z" fill="#459C90"/>
<path d="M34.9013 229.559C36.0004 229.559 36.8913 228.668 36.8913 227.569C36.8913 226.47 36.0004 225.579 34.9013 225.579C33.8023 225.579 32.9113 226.47 32.9113 227.569C32.9113 228.668 33.8023 229.559 34.9013 229.559Z" fill="#459C90"/>
<path d="M103.821 272.879C103.821 275.309 101.851 277.289 99.4113 277.289C96.9813 277.289 95.0013 275.319 95.0013 272.879C95.0013 270.449 96.9713 268.469 99.4113 268.469C101.851 268.469 103.821 270.449 103.821 272.879Z" fill="#459C90"/>
<path d="M94.2113 122.809C97.4808 122.809 100.131 120.158 100.131 116.889C100.131 113.619 97.4808 110.969 94.2113 110.969C90.9417 110.969 88.2913 113.619 88.2913 116.889C88.2913 120.158 90.9417 122.809 94.2113 122.809Z" fill="#459C90"/>
<path d="M289.311 62.0486C289.311 65.2086 286.751 67.7686 283.591 67.7686C280.431 67.7686 277.871 65.2086 277.871 62.0486C277.871 58.8886 280.431 56.3286 283.591 56.3286C286.751 56.3186 289.311 58.8886 289.311 62.0486Z" fill="#459C90"/>
<path d="M198.931 310.499C198.931 311.999 197.721 313.209 196.221 313.209C194.721 313.209 193.511 311.999 193.511 310.499C193.511 308.999 194.721 307.789 196.221 307.789C197.721 307.789 198.931 308.999 198.931 310.499Z" fill="#9FE0E2"/>
<path d="M263.121 351.039C265.43 351.039 267.301 349.167 267.301 346.859C267.301 344.55 265.43 342.679 263.121 342.679C260.813 342.679 258.941 344.55 258.941 346.859C258.941 349.167 260.813 351.039 263.121 351.039Z" fill="#9FE0E2"/>
<path d="M315.771 299.119C315.771 300.949 314.291 302.429 312.461 302.429C310.631 302.429 309.151 300.949 309.151 299.119C309.151 297.289 310.631 295.809 312.461 295.809C314.291 295.809 315.771 297.289 315.771 299.119Z" fill="#9FE0E2"/>
<path d="M256.62 163.31C256.62 165.14 255.14 166.62 253.31 166.62C251.48 166.62 250 165.14 250 163.31C250 161.48 251.48 160 253.31 160C255.14 160 256.62 161.48 256.62 163.31Z" fill="#9FE0E2"/>
<path d="M437.091 231.299C437.091 234.349 434.621 236.829 431.561 236.829C428.511 236.829 426.031 234.359 426.031 231.299C426.031 228.249 428.501 225.769 431.561 225.769C434.611 225.769 437.091 228.239 437.091 231.299Z" fill="#9FE0E2"/>
<path d="M448.571 151.169C449.742 151.169 450.691 150.22 450.691 149.049C450.691 147.878 449.742 146.929 448.571 146.929C447.4 146.929 446.451 147.878 446.451 149.049C446.451 150.22 447.4 151.169 448.571 151.169Z" fill="#9FE0E2"/>
<path d="M365.451 109.629C367.644 109.629 369.421 107.852 369.421 105.659C369.421 103.466 367.644 101.689 365.451 101.689C363.259 101.689 361.481 103.466 361.481 105.659C361.481 107.852 363.259 109.629 365.451 109.629Z" fill="#9FE0E2"/>
<path d="M321.681 137.429C321.681 139.549 319.961 141.269 317.841 141.269C315.721 141.269 314.001 139.549 314.001 137.429C314.001 135.309 315.721 133.589 317.841 133.589C319.961 133.599 321.681 135.309 321.681 137.429Z" fill="#9FE0E2"/>
<path d="M141.521 127.549C141.521 129.269 140.131 130.669 138.401 130.669C136.681 130.669 135.281 129.279 135.281 127.549C135.281 125.829 136.671 124.429 138.401 124.429C140.121 124.439 141.521 125.829 141.521 127.549Z" fill="#9FE0E2"/>
<path d="M149.531 59.6188C149.531 61.7488 147.801 63.4788 145.671 63.4788C143.541 63.4788 141.811 61.7488 141.811 59.6188C141.811 57.4888 143.541 55.7588 145.671 55.7588C147.811 55.7588 149.531 57.4888 149.531 59.6188Z" fill="#9FE0E2"/>
<path d="M66.1713 94.479C66.1713 96.019 64.9213 97.269 63.3813 97.269C61.8413 97.269 60.5913 96.019 60.5913 94.479C60.5913 92.939 61.8413 91.689 63.3813 91.689C64.9213 91.689 66.1713 92.939 66.1713 94.479Z" fill="#9FE0E2"/>
<path d="M107.851 153.309C107.851 154.589 106.821 155.619 105.541 155.619C104.261 155.619 103.231 154.589 103.231 153.309C103.231 152.029 104.261 150.999 105.541 150.999C106.821 150.999 107.851 152.029 107.851 153.309Z" fill="#EAAE35"/>
<path d="M394.407 179.426C396.938 173.144 397.911 166.153 401.687 160.533C407.122 152.444 417.559 148.431 421.97 139.742C423.843 136.053 424.43 131.831 424.45 127.693C424.485 119.505 422.034 110.802 415.71 105.599C408.444 99.6209 397.542 99.7042 389.031 103.72C380.523 107.737 374.021 115.027 368.492 122.642C362.965 130.256 358.127 138.427 351.689 145.29C346.916 150.378 341.254 154.765 337.659 160.744C327.802 177.131 337.944 197.865 355.344 203.78C370.634 208.976 389.119 192.554 394.407 179.426Z" fill="#2C373F"/>
<path d="M416.189 295.004C414.676 296.249 416.327 295.388 414.126 296.82C414.617 302.319 419.703 305.785 419.703 305.785C419.703 305.785 419.918 314.541 421.552 314.361C423.19 314.184 422.141 305.931 422.141 305.931C422.141 305.931 425.491 314.554 426.906 314.005C428.323 313.458 423.197 303.562 423.197 303.562C423.197 303.562 430.382 313.452 431.369 311.893C432.355 310.335 426.032 300.792 426.032 300.792C426.032 300.792 433.84 308.976 434.721 307.651C435.602 306.329 425.404 294.947 425.404 294.947C430.124 294.895 429.79 291.682 429.79 291.682L418.293 292.363C418.294 292.363 416.885 294.43 416.189 295.004Z" fill="#FFC5B1"/>
<path d="M306.361 129.873C304.394 130.218 305.921 129.566 303.369 130.308C299.176 126.501 299.732 120.515 299.732 120.515C299.732 120.515 292.7 114.877 293.867 113.774C295.039 112.67 301.139 118.612 301.139 118.612C301.139 118.612 296.177 110.728 297.51 110.017C298.844 109.309 303.739 119.312 303.739 119.312C303.739 119.312 300.137 107.782 302.03 108.024C303.922 108.266 307.783 118.934 307.783 118.934C307.783 118.934 305.966 108.013 307.601 108.185C309.234 108.358 311.877 122.665 311.877 122.665C315.728 119.531 318.422 121.537 318.422 121.537L309.996 129.798C309.996 129.799 307.265 129.715 306.361 129.873Z" fill="#FFC5B1"/>
<path d="M354.49 177.691C350.934 177.136 340.087 184.165 342.848 198.438C343.078 199.636 344.643 202.275 345.033 203.365C345.525 204.748 341.689 209.805 341.689 209.805L351.593 212.969C352.016 209.978 351.305 205.605 354.507 204.306C355.703 203.82 356.983 203.511 358.114 202.895C361.164 201.23 362.792 197.586 364.044 194.604C364.979 192.375 365.692 189.979 365.665 187.56C365.6 181.47 360.206 178.585 354.49 177.691Z" fill="#FFC5B1"/>
<path d="M334.656 216.781C334.656 211.644 336.286 209.683 341.677 209.683C347.069 209.683 354.188 211.644 354.188 216.781C354.188 221.92 350.38 228.35 344.986 228.35C339.594 228.35 334.656 221.92 334.656 216.781Z" fill="#FFC5B1"/>
<path d="M338.914 207.194C338.914 207.194 322.148 189.907 318.794 172.973C315.439 156.04 309.741 128.561 309.741 128.561L303.367 130.309C303.367 130.309 300.348 167.86 303.367 173.613C306.386 179.363 323.489 219.303 323.153 229.524L338.914 207.194Z" fill="#FFC5B1"/>
<path d="M368.801 215.563C368.801 215.563 374.503 216.522 383.222 236.332C391.942 256.141 418.77 293.02 418.77 293.02L414.41 297.035C414.41 297.035 388.253 277.548 383.222 265.727C378.193 253.905 371.822 239.207 368.801 239.845C365.785 240.487 353.04 222.911 368.801 215.563Z" fill="#FFC5B1"/>
<path d="M323.914 232.166L316.106 210.618C316.106 210.618 317.31 200.51 332.72 196.887L341.448 209.465L323.914 232.166Z" fill="#F97A5D"/>
<path d="M366.198 213.911C366.198 213.911 375.409 214.687 382.875 231.084C382.875 231.084 374.665 242.418 368.659 242.801C368.659 242.801 346.351 223.732 366.198 213.911Z" fill="#F97A5D"/>
<path d="M340.893 408.366C340.893 408.366 354.189 435.516 355.742 430.489C357.294 425.461 356.782 413.385 355.947 411.662C355.112 409.937 349.676 402.321 349.676 402.321L340.893 408.366Z" fill="#FFC5B1"/>
<path d="M339.876 279.287L327.718 274.639C327.718 274.639 291.633 338.392 291.782 356.082C291.933 373.769 341.343 409.184 341.343 409.184L349.677 402.321C349.677 402.321 326.257 367.889 318.102 358.952C314.025 354.482 343.218 332.584 347.64 311.513C352.062 290.44 339.876 279.287 339.876 279.287Z" fill="#5D4484"/>
<path d="M412.981 394.142C412.981 394.142 437.852 412.475 436.818 407.33C435.781 402.18 429.519 391.671 427.949 390.502C426.377 389.334 417.885 384.937 417.885 384.937L412.981 394.142Z" fill="#FFC5B1"/>
<path d="M372.956 301.863L336.984 281.016C336.984 281.016 335.555 353.436 344.191 369.095C352.825 384.752 413.776 394.674 413.776 394.674L417.885 384.936C417.885 384.936 380.282 362.532 368.737 358.147C357.192 353.761 372.956 301.863 372.956 301.863Z" fill="#6E5395"/>
<path d="M351.532 266.754C351.532 266.754 378.021 276.132 372.956 301.862C367.893 327.593 359.454 332.417 359.454 332.417L344.263 307.492L329.012 274.85L344.263 272.917L351.532 266.754Z" fill="#6E5395"/>
<path d="M338.914 207.194C338.914 207.194 319.413 218.123 319.413 242.817C319.413 242.817 321.891 270.972 325.905 277.125C325.905 277.125 332.432 278.718 340.57 277.125C349.102 275.454 357.36 269.457 357.36 269.457L364.024 234.988L369.209 214.861L366.397 213.933L351.731 212.323C351.731 212.323 353.839 234.232 337.461 223.351C334.012 221.059 341.754 209.636 341.754 209.636L338.914 207.194Z" fill="#F97A5D"/>
<path d="M414.08 142.135C414.003 142.066 413.099 142.886 411.672 144.557C410.251 146.231 408.312 148.776 406.365 152.211C404.411 155.631 402.476 159.971 401.097 165.008C399.668 170.008 398.71 175.629 396.514 181.042C395.373 183.717 393.992 186.206 392.347 188.407C390.686 190.594 388.846 192.514 386.951 194.188C383.079 197.446 379.024 199.686 375.409 200.983C371.797 202.295 368.704 202.884 366.555 203.097C364.407 203.333 363.193 203.369 363.191 203.509C363.185 203.597 364.396 203.782 366.602 203.739C368.807 203.723 372.015 203.302 375.795 202.09C379.577 200.895 383.851 198.685 387.938 195.355C389.94 193.643 391.89 191.663 393.645 189.384C395.384 187.093 396.854 184.475 398.048 181.671C400.336 176.013 401.241 170.343 402.571 165.409C403.843 160.459 405.609 156.198 407.397 152.771C409.172 149.333 410.933 146.728 412.181 144.951C413.437 143.179 414.174 142.218 414.08 142.135Z" fill="#2C373F"/>
<path d="M363.845 114.23C363.544 114.183 363.252 118.209 361 124.162C359.876 127.127 358.202 130.539 355.8 133.959C354.597 135.672 353.217 137.359 351.653 139.04C350.099 140.729 348.409 142.443 346.807 144.368C343.602 148.25 341.396 152.446 339.319 156.149C337.257 159.889 335.614 163.448 334.779 166.63C333.909 169.802 333.857 172.533 334.133 174.345C334.421 176.164 334.874 177.086 334.95 177.061C335.093 177.025 334.859 176.051 334.776 174.287C334.705 172.527 334.929 169.961 335.903 166.961C336.845 163.95 338.538 160.557 340.651 156.896C342.797 153.237 345.022 149.125 348.085 145.426C349.621 143.573 351.291 141.865 352.853 140.134C354.425 138.412 355.855 136.619 357.059 134.824C359.478 131.231 361.093 127.652 362.104 124.556C363.138 121.461 363.578 118.85 363.787 117.05C363.995 115.248 363.939 114.238 363.845 114.23Z" fill="#2C373F"/>
<path d="M351.31 193.206C351.325 193.09 350.66 192.984 350.031 192.245C349.886 192.075 349.741 191.826 349.743 191.681C349.745 191.526 349.854 191.255 350.042 191.099C350.236 190.925 350.45 190.841 350.736 190.87C351.032 190.892 351.389 191.038 351.857 191.108C352.884 191.245 353.684 190.666 354.21 190.196C354.751 189.702 355.163 189.202 355.471 188.753C356.083 187.849 356.274 187.196 356.179 187.147C356.071 187.089 355.703 187.63 355.01 188.388C354.664 188.764 354.23 189.197 353.716 189.613C353.209 190.018 352.587 190.386 351.969 190.288C351.64 190.245 351.257 190.092 350.792 190.061C350.318 190.014 349.791 190.232 349.501 190.558C349.193 190.891 349.02 191.283 349.056 191.748C349.148 192.224 349.4 192.446 349.61 192.654C350.511 193.442 351.339 193.313 351.31 193.206Z" fill="#F97A5D"/>
<path d="M346.478 193.885L354.33 196.741C354.33 196.741 347.668 202.571 346.478 193.885Z" fill="white"/>
<path d="M355.114 193.4C354.8 193.995 355.266 194.857 356.152 195.324C357.038 195.791 358.011 195.687 358.325 195.09C358.638 194.495 358.174 193.633 357.288 193.167C356.401 192.699 355.429 192.804 355.114 193.4Z" fill="#F4B19F"/>
<path d="M345.804 188.626C345.546 189.248 346.09 190.063 347.016 190.445C347.943 190.828 348.903 190.634 349.16 190.011C349.417 189.388 348.874 188.574 347.947 188.192C347.021 187.81 346.061 188.004 345.804 188.626Z" fill="#F4B19F"/>
<path d="M354.099 204.515C354.099 204.515 351.471 205.049 348.121 204.213C348.121 204.213 349.774 205.817 352.47 206.19C352.47 206.189 353.075 205.072 354.099 204.515Z" fill="#EDA091"/>
<path d="M351.414 186.862C351.119 187.112 351.084 187.554 351.334 187.848C351.584 188.143 352.024 188.179 352.32 187.93C352.615 187.68 352.649 187.239 352.4 186.944C352.149 186.649 351.709 186.612 351.414 186.862Z" fill="#2C373F"/>
<path d="M356.692 189.898C356.398 190.148 356.361 190.589 356.61 190.884C356.859 191.179 357.3 191.215 357.597 190.967C357.891 190.718 357.927 190.275 357.677 189.979C357.427 189.684 356.986 189.648 356.692 189.898Z" fill="#2C373F"/>
<path d="M351.383 183.942C351.453 184.166 352.108 184.158 352.828 184.376C353.554 184.572 354.106 184.927 354.285 184.773C354.47 184.645 354.042 183.86 353.057 183.58C352.073 183.294 351.294 183.734 351.383 183.942Z" fill="#2C373F"/>
<path d="M360.499 189.447C360.676 189.317 360.4 188.565 359.728 187.815C359.049 187.048 358.181 186.791 358.09 187.005C357.993 187.214 358.522 187.701 359.118 188.375C359.72 189.047 360.308 189.591 360.499 189.447Z" fill="#2C373F"/>
<path d="M363.46 195.279C363.46 195.279 365.978 193.163 367.188 195.077C368.396 196.991 361.747 197.999 361.747 197.999L363.46 195.279Z" fill="#FFC5B1"/>
<path d="M424.022 388.185C424.022 388.185 427.633 389.755 428.574 390.698C429.517 391.639 438.152 406.553 437.052 408.437C435.953 410.32 427.294 403.927 427.294 403.927C427.294 403.927 434.539 405.297 424.022 388.185Z" fill="#6E5395"/>
<path d="M353.561 407.906C353.561 407.906 356.126 410.679 356.522 411.951C356.916 413.223 357.625 430.441 355.775 431.597C353.927 432.754 348.872 423.253 348.872 423.253C348.872 423.253 354.914 427.987 353.562 407.946" fill="#6E5395"/>
<path d="M106.52 160.135C106.52 160.135 103.751 162.047 105.136 165.236C106.52 168.425 112.591 177.885 120.793 177.566C121.129 177.554 110.461 160.135 110.461 160.135H106.52V160.135Z" fill="#F97A5D"/>
<path d="M93.9746 334.525C93.9746 334.525 83.7192 325.38 80.4363 327.018C76.4245 329.02 53.4644 351.47 54.3608 362.047C54.73 366.378 59.783 362.667 68.7871 353.346C77.7938 344.026 89.1345 348.021 89.1345 348.021L93.9746 334.525Z" fill="#6E5395"/>
<path d="M118.891 349.943L106.511 342.531C106.511 342.531 74.4193 372.556 79.4329 376.559C83.2356 379.595 85.4711 376.872 94.4763 367.552C103.48 358.232 114.89 363.59 114.89 363.59L118.891 349.943Z" fill="#6E5395"/>
<path d="M194.519 251.167L196.842 284.065L145.304 270.668L194.519 251.167Z" fill="#E0A584"/>
<path d="M145.304 271.799C145.304 271.799 190.385 274.634 196.387 272.636C196.387 272.636 205.199 359.005 189.522 368.323C173.844 377.645 138.665 363.996 138.665 363.996L148.164 345.359L168.643 344.026V310.743L167.174 311.075L145.304 271.799Z" fill="#1D262D"/>
<path d="M88.7934 330.713C88.7934 330.713 77.4549 335.373 81.1231 346.69C81.1231 346.69 119.831 376.979 138.665 369.988C149.216 366.074 160.552 336.198 168.482 310.674L196.387 272.634C196.387 272.634 183.226 273.293 178.836 273.275C170.445 273.244 145.304 271.799 145.304 271.799C145.304 271.799 132.172 340.366 127.493 342.03C122.814 343.692 88.7934 330.713 88.7934 330.713Z" fill="#2C373F"/>
<path d="M155.808 185.799C155.808 185.799 182.827 160.503 187.495 153.845C192.163 147.188 202.173 124.889 214.511 115.568L208.507 102.92C208.507 102.92 212.178 100.924 214.511 106.248C214.511 106.248 223.181 88.9415 225.182 89.2728C227.186 89.6056 221.181 102.588 221.181 102.588C221.181 102.588 229.522 90.6032 231.856 90.9377C234.188 91.2711 225.852 104.41 225.852 104.41C225.852 104.41 235.19 93.6002 236.523 94.9312C237.858 96.2627 229.186 104.41 229.186 104.41C229.186 104.41 238.525 99.0579 239.526 100.822C240.527 102.587 230.188 107.247 230.188 107.247C230.188 107.247 229.186 114.902 222.85 118.231C222.85 118.231 210.304 152.06 198.963 163.043L162.533 200.828L155.808 185.799Z" fill="#FFC5B1"/>
<path d="M123.558 198.91C123.558 198.91 97.9598 225.634 91.2449 230.231C84.5295 234.826 62.0929 244.606 52.6387 256.833L40.0202 250.724C40.0202 250.724 37.9859 254.365 43.3 256.744C43.3 256.744 25.8775 265.236 26.1919 267.238C26.5058 269.238 39.5696 263.368 39.5696 263.368C39.5696 263.368 27.4842 271.579 27.7965 273.91C28.1082 276.241 41.3502 268.044 41.3502 268.044C41.3502 268.044 30.4331 277.261 31.7556 278.604C33.075 279.95 41.3199 271.373 41.3199 271.373C41.3199 271.373 35.8706 280.642 37.631 281.657C39.3887 282.671 44.1549 272.399 44.1549 272.399C44.1549 272.399 51.8343 271.473 55.2301 265.178C55.2301 265.178 87.3389 252.43 98.4519 241.216L138.409 212.961L123.558 198.91Z" fill="#FFC5B1"/>
<path d="M133.155 188.26L120.208 200.906L123.49 215.167C123.49 215.167 136.247 245.728 138.176 253.183C141.173 264.776 136.325 282.451 136.325 282.451C136.325 282.451 157.949 280.661 177.626 279.994C197.302 279.329 203.74 273.004 203.74 273.004C203.74 273.004 186.679 216.301 174.902 200.451C163.121 184.603 158.837 179.642 158.837 179.642L141.493 183.425L133.155 188.26Z" fill="#61E7A6"/>
<path d="M171.153 198.583L184.643 189.98C184.643 189.98 186.705 180.764 170.436 169.895L151.359 181.823L171.153 198.583Z" fill="#61E7A6"/>
<path d="M122.936 199.907C115.54 200.943 102.025 219.648 100.518 219.614C100.518 219.614 110.029 235.104 117.565 235.606C117.565 235.606 150.722 196.018 122.936 199.907Z" fill="#61E7A6"/>
<path d="M149.044 187.737C149.044 187.737 138.293 179.721 138.665 176.526C138.761 175.72 140.25 174.413 140.637 173.254C142.721 167.014 132.672 150.934 126.497 147.545C121.639 144.879 123.768 144.644 113.546 150.707C103.323 156.769 109.147 167.253 113.712 172.675C118.028 177.799 122.971 179.996 127.419 180.365L133.742 194.38L149.044 187.737Z" fill="#FFC5B1"/>
<path d="M129.646 198.864C127.612 193.887 131.462 187.617 138.247 184.856C145.031 182.094 152.178 183.89 154.215 188.866C156.246 193.841 149.42 201.321 145.609 202.872C141.798 204.422 131.677 203.837 129.646 198.864Z" fill="#FFC5B1"/>
<path d="M113.713 172.674C113.713 172.674 110.226 172.482 109.839 174.801C109.452 177.12 116.23 177.12 118.749 175.38L113.713 172.674Z" fill="#FFC5B1"/>
<path d="M115.457 174.8C114.794 170.609 110.32 167.494 110.543 163.411C112.688 163.427 114.065 160.776 113.089 158.512C112.704 157.621 112.054 156.858 111.638 155.981C111.223 155.103 111.113 153.954 111.749 153.458C112.05 153.225 112.458 153.183 112.849 153.144C116.029 152.818 121.477 153.77 124.403 152.688C127.19 151.657 130.176 149.651 129.885 146.246C129.632 143.28 127.008 140.874 124.596 139.058C123.215 138.016 119.268 135.292 117.779 135.538C115.506 135.917 114.955 138.942 114.791 141.476C113.201 139.965 110.856 140.209 109.473 141.438C108.09 142.666 107.435 144.619 106.834 146.506C106.23 148.391 105.591 150.35 104.227 151.601C102.956 152.77 100.945 153.654 101.209 155.639C101.522 158.006 104.62 158.848 106.053 160.866C105.7 160.371 105.401 163.531 105.604 164.068C106.215 165.682 107.741 166.751 108.844 167.985C111.195 170.616 112.344 173.265 115.457 174.8Z" fill="#F97A5D"/>
<path d="M134.935 165.219L126.991 169.319C126.991 169.318 136.532 176.231 134.935 165.219Z" fill="white"/>
<path d="M124.006 166.844C124.44 167.666 123.797 168.855 122.571 169.499C121.344 170.145 119.998 169.999 119.565 169.177C119.132 168.355 119.773 167.167 121 166.522C122.227 165.878 123.571 166.022 124.006 166.844Z" fill="#F4B19F"/>
<path d="M135.605 158.937C136.039 159.758 135.396 160.948 134.171 161.591C132.944 162.237 131.598 162.091 131.164 161.269C130.731 160.447 131.373 159.26 132.599 158.614C133.826 157.97 135.172 158.114 135.605 158.937Z" fill="#F4B19F"/>
<path d="M129.389 164.928C129.353 164.881 129.501 164.686 129.845 164.44C130.172 164.186 130.743 163.915 131.166 163.459C131.586 163.017 131.738 162.096 131.094 161.969C130.427 161.74 129.668 162.506 128.799 163.233C128.584 163.411 128.372 163.588 128.16 163.762C127.964 163.941 127.549 164.206 127.119 164.154C126.299 164.021 125.949 163.474 125.635 163.11C125.005 162.303 124.616 161.458 124.402 160.729C123.975 159.252 124.167 158.299 124.269 158.307C124.412 158.3 124.459 159.217 125 160.515C125.273 161.16 125.681 161.892 126.276 162.585C126.565 162.937 126.93 163.264 127.19 163.274C127.299 163.279 127.384 163.243 127.589 163.072C127.798 162.898 128.007 162.721 128.22 162.542C128.658 162.189 129.037 161.832 129.538 161.499C130.025 161.172 130.719 160.964 131.34 161.176C132.005 161.349 132.394 162.121 132.279 162.66C132.204 163.206 131.931 163.61 131.622 163.904C130.967 164.45 130.381 164.582 130.013 164.746C129.636 164.889 129.428 164.979 129.389 164.928Z" fill="#F97A5D"/>
<path d="M127.419 180.365C127.419 180.365 132.486 180.394 135.235 178.705C135.235 178.705 132.91 181.556 128.256 182.294L127.419 180.365Z" fill="#EDA091"/>
<path d="M129.616 157.687C129.57 157.937 128.862 158.014 128.113 158.344C127.354 158.65 126.804 159.104 126.593 158.965C126.377 158.849 126.736 157.947 127.761 157.516C128.786 157.082 129.683 157.45 129.616 157.687Z" fill="#2C373F"/>
<path d="M119.685 164.187C119.494 164.046 119.795 163.232 120.524 162.417C121.262 161.586 122.206 161.308 122.305 161.54C122.411 161.766 121.835 162.294 121.189 163.025C120.532 163.754 119.893 164.342 119.685 164.187Z" fill="#2C373F"/>
<path d="M115.836 162.931C115.425 162.628 115.105 161.327 116.677 159.575C118.263 157.785 120.035 158.101 120.247 158.598C120.476 159.087 119.885 159.781 118.493 161.356C117.081 162.926 116.28 163.265 115.836 162.931Z" fill="#F97A5D"/>
<path d="M124.178 156.031C123.951 155.607 124.201 154.372 126.245 153.513C128.317 152.623 129.699 153.605 129.679 154.114C129.676 154.62 128.896 154.975 127.076 155.758C125.241 156.526 124.424 156.493 124.178 156.031Z" fill="#F97A5D"/>
</g>
<defs>
<clipPath id="clip0">
<rect width="500" height="500" fill="white"/>
</clipPath>
</defs>
</svg>
