<svg width="185" height="73" viewBox="0 0 185 73" fill="none" xmlns="http://www.w3.org/2000/svg">
<g clip-path="url(#clip0)">
<path d="M168.84 20.7666C168.449 20.5404 167.903 20.6869 167.677 21.0785L156.22 40.9408C156.083 41.1784 156.069 41.4668 156.181 41.717C156.294 41.967 156.52 42.1479 156.787 42.2028L158.245 42.502L158.825 44.6662L155.189 46.848L150.149 43.9351L150.219 39.6925L152.381 39.1131L153.369 40.2271C153.55 40.4319 153.82 40.5373 154.092 40.5099C154.139 40.5053 154.184 40.4967 154.227 40.485C154.443 40.4271 154.631 40.2854 154.744 40.0878L166.201 20.2254C166.314 20.0296 166.344 19.7973 166.286 19.5784C166.227 19.3596 166.084 19.1738 165.889 19.0606L162.05 16.8422C161.854 16.7291 161.622 16.6982 161.403 16.7568L161.402 16.7572C161.182 16.8168 160.996 16.9607 160.884 17.1571L148.637 38.6118C148.631 38.6222 148.635 38.6347 148.63 38.6452C148.57 38.7591 148.527 38.8834 148.525 39.0213L148.437 44.4085L148.323 51.4357C148.318 51.7449 148.481 52.0331 148.749 52.188C148.948 52.3029 149.18 52.3311 149.396 52.2734C149.471 52.2532 149.544 52.2224 149.613 52.1815L155.636 48.5692L160.253 45.7991C160.267 45.7908 160.274 45.7766 160.287 45.7675C160.335 45.7357 160.372 45.6944 160.412 45.6533C160.452 45.6129 160.492 45.5756 160.522 45.5291C160.53 45.5169 160.543 45.5097 160.551 45.4968L172.989 24.1529C173.103 23.9577 173.135 23.7243 173.077 23.5045C173.019 23.2855 172.876 23.0988 172.679 22.9851L168.84 20.7666Z" fill="white"/>
<path d="M175.693 12.7127L169.43 9.09354C167.853 8.18165 165.687 8.75922 164.773 10.344L162.574 14.1966C162.342 14.6047 162.482 15.1233 162.888 15.3583L173.544 21.5164C173.748 21.6342 173.98 21.6582 174.191 21.6018C174.4 21.5456 174.588 21.41 174.706 21.2077L176.941 17.3721C177.397 16.5828 177.517 15.6641 177.282 14.7841C177.046 13.9041 176.482 13.1686 175.693 12.7127Z" fill="white"/>
</g>
<path d="M20.6498 15.1153C21.3465 15.1989 21.8899 15.4218 22.2801 15.7841C22.6981 16.1185 22.9071 16.6759 22.9071 17.4562C22.9071 18.2643 22.6702 18.8635 22.1965 19.2536C21.7506 19.6438 21.1097 19.811 20.2736 19.7552C17.9606 19.6159 16.1214 19.5323 14.7559 19.5044C14.5329 22.3748 14.3518 25.8304 14.2124 29.8712C14.101 34.4414 14.0452 38.4822 14.0452 41.9935C14.0452 42.8853 13.8641 43.5123 13.5018 43.8746C13.1674 44.2369 12.5125 44.418 11.5372 44.418C10.5339 44.418 9.80937 44.2229 9.36349 43.8328C8.91761 43.4426 8.69467 42.7738 8.69467 41.8263C8.69467 38.4544 8.80614 34.4693 9.02908 29.8712L9.36349 23.81C9.39136 22.6674 9.46103 21.2462 9.5725 19.5462C8.42993 19.5741 6.91115 19.6577 5.01616 19.797L4.01292 19.8806L3.59491 19.9224C2.89822 19.9224 2.34087 19.6995 1.92286 19.2536C1.53271 18.8077 1.33764 18.2225 1.33764 17.498C1.33764 16.2439 2.0204 15.5194 3.38591 15.3243C5.55957 15.0178 8.65287 14.8645 12.6658 14.8645C16.2886 14.8645 18.9499 14.9481 20.6498 15.1153ZM36.9138 44.0836C33.514 44.0836 30.769 43.1918 28.679 41.4083C26.6168 39.6248 25.5857 37.0192 25.5857 33.5915C25.5857 31.3899 26.0315 29.4531 26.9233 27.7811C27.8151 26.0812 29.097 24.7575 30.769 23.81C32.4411 22.8625 34.4057 22.3887 36.663 22.3887C38.8924 22.3887 40.871 22.8625 42.5988 23.81C44.3544 24.7575 45.706 26.0951 46.6535 27.8229C47.6289 29.5228 48.1166 31.5014 48.1166 33.7587C48.1166 37.0749 47.0994 39.6248 45.0651 41.4083C43.0307 43.1918 40.3137 44.0836 36.9138 44.0836ZM36.8302 40.1125C38.7252 40.1125 40.2161 39.583 41.303 38.524C42.4177 37.4372 42.975 35.8348 42.975 33.7169C42.975 31.5989 42.4316 29.8433 41.3448 28.4499C40.2579 27.0565 38.7531 26.3599 36.8302 26.3599C34.9631 26.3599 33.4722 27.0147 32.3575 28.3245C31.2428 29.6343 30.6854 31.3899 30.6854 33.5915C30.6854 35.793 31.2428 37.4372 32.3575 38.524C33.5 39.583 34.991 40.1125 36.8302 40.1125ZM52.4874 30.2892C52.0694 30.2892 51.7211 30.108 51.4424 29.7458C51.1916 29.3835 51.0662 28.9515 51.0662 28.4499C51.0662 27.9483 51.2055 27.5442 51.4842 27.2377C51.7907 26.9033 52.1669 26.7361 52.6128 26.7361C55.1766 26.7918 56.8626 26.8197 57.6708 26.8197C59.3428 26.8197 61.2657 26.75 63.4394 26.6107C64.0803 26.5828 64.5541 26.7361 64.8606 27.0705C65.195 27.377 65.3622 27.8229 65.3622 28.4081C65.3622 28.9097 65.1811 29.3277 64.8188 29.6622C64.4844 29.9966 64.0385 30.1777 63.4812 30.2056C61.6419 30.2613 57.9773 30.2892 52.4874 30.2892ZM76.2253 14.8227C81.8546 15.2686 86.2298 16.648 89.3509 18.961C92.4721 21.274 94.0327 24.5903 94.0327 28.9097C94.0327 31.8916 93.2803 34.4972 91.7754 36.7266C90.2706 38.956 88.1108 40.6838 85.2962 41.9099C82.4816 43.1361 79.1793 43.7492 75.3893 43.7492H72.505C71.6968 43.7492 71.1116 43.6099 70.7494 43.3312C70.3871 43.0246 70.2059 42.523 70.2059 41.8263C70.2059 40.628 70.7633 40.0289 71.878 40.0289H72.9648L72.3378 18.4594H72.087C70.8051 18.4594 70.1641 17.8603 70.1641 16.6619C70.1641 15.3522 70.833 14.6973 72.1706 14.6973H72.6304C72.9091 14.1957 73.4943 13.9449 74.3861 13.9449C75.3057 13.9449 75.9188 14.2375 76.2253 14.8227ZM77.1032 39.9871C79.5834 39.8199 81.7849 39.2904 83.7078 38.3986C85.6306 37.479 87.1355 36.211 88.2223 34.5947C89.337 32.9784 89.8944 31.0834 89.8944 28.9097C89.8944 25.5378 88.6542 23.0715 86.174 21.5109C83.7217 19.9503 80.503 18.9889 76.5179 18.6266L77.1032 39.9871ZM118.539 40.6559C118.957 40.7116 119.278 40.851 119.501 41.0739C119.752 41.2968 119.877 41.6731 119.877 42.2025C119.877 42.7042 119.752 43.1222 119.501 43.4566C119.25 43.791 118.902 43.9582 118.456 43.9582C117.313 43.9582 116.449 43.791 115.864 43.4566C115.307 43.1222 114.791 42.4952 114.317 41.5755C113.147 43.4705 110.973 44.418 107.796 44.418C104.564 44.418 102.181 43.4426 100.648 41.4919C99.1157 39.5133 98.3493 37.061 98.3493 34.1349C98.3493 32.1842 98.7395 30.3867 99.5198 28.7425C100.3 27.0983 101.443 25.7886 102.947 24.8132C104.452 23.8378 106.208 23.3502 108.214 23.3502C109.496 23.3502 110.625 23.601 111.6 24.1026C112.604 24.6042 113.356 25.287 113.858 26.1508L113.983 25.1058C114.094 24.1026 114.694 23.601 115.78 23.601C116.505 23.601 117.021 23.7682 117.327 24.1026C117.634 24.4091 117.759 24.7993 117.703 25.273C117.425 27.3631 117.257 28.9376 117.202 29.9966C117.118 30.9998 117.076 32.3096 117.076 33.9259V36.6848C117.076 38.1339 117.146 39.1371 117.285 39.6945C117.453 40.2518 117.871 40.5723 118.539 40.6559ZM112.98 36.6848C113.008 35.4307 113.022 33.7169 113.022 31.5432C113.022 30.4006 112.771 29.4671 112.269 28.7425C111.795 28.018 111.196 27.4885 110.472 27.1541C109.775 26.8197 109.064 26.6525 108.34 26.6525C107.086 26.6525 106.013 27.0287 105.121 27.7811C104.257 28.5057 103.602 29.4392 103.156 30.5818C102.738 31.7244 102.529 32.9087 102.529 34.1349C102.529 36.002 102.961 37.6323 103.825 39.0256C104.717 40.3912 106.096 41.0739 107.964 41.0739C109.441 41.0739 110.639 40.6977 111.559 39.9453C112.478 39.1929 112.952 38.106 112.98 36.6848ZM131.294 54.9101C130.681 54.9101 130.165 54.7151 129.747 54.3249C129.329 53.9626 129.12 53.5168 129.12 52.9873C129.12 52.7365 129.176 52.4996 129.287 52.2767C130.569 48.9604 131.795 45.6581 132.966 42.3697C131.767 41.5616 130.541 40.1682 129.287 38.1896C128.061 36.1832 126.96 33.9816 125.985 31.585C125.01 29.1605 124.285 26.959 123.811 24.9804C123.755 24.7575 123.728 24.5485 123.728 24.3534C123.728 23.8796 123.909 23.4895 124.271 23.183C124.661 22.8764 125.163 22.7231 125.776 22.7231C126.305 22.7231 126.682 22.8346 126.905 23.0575C127.155 23.2805 127.336 23.6288 127.448 24.1026C129.845 32.1284 132.144 36.8798 134.345 38.3568C135.32 35.0127 136.616 30.1916 138.233 23.8936C138.372 23.4198 138.567 23.0854 138.818 22.8903C139.069 22.6953 139.445 22.5977 139.947 22.5977C140.615 22.5977 141.145 22.751 141.535 23.0575C141.953 23.3362 142.19 23.7124 142.246 24.1862C142.273 24.2977 142.26 24.4509 142.204 24.646C141.368 27.9901 140.615 30.8605 139.947 33.2571C139.278 35.6537 138.525 38.0921 137.689 40.5723C137.048 42.4952 136.254 44.7942 135.307 47.4695C134.387 50.1448 133.648 52.1791 133.091 53.5725C132.924 54.0184 132.701 54.3528 132.422 54.5757C132.171 54.7987 131.795 54.9101 131.294 54.9101Z" fill="white"/>
<path d="M64 56.2846C75.0854 54.7253 87.5909 51.9026 98.8424 53.857C107.482 55.3578 115.425 59.7081 124.152 61.3395C131.458 62.7053 139.831 60.3495 145.274 55.6593" stroke="white" stroke-width="3" stroke-linecap="round" stroke-linejoin="round"/>
<defs>
<clipPath id="clip0">
<rect width="37.4912" height="37.4912" fill="white" transform="translate(138.869 16.2803) rotate(-15)"/>
</clipPath>
</defs>
</svg>
