<svg width="937" height="382" viewBox="0 0 937 382" fill="none" xmlns="http://www.w3.org/2000/svg">
<g clip-path="url(#clip0)">
<g clip-path="url(#clip1)">
<path d="M853.43 119.318C851.378 118.132 848.514 118.9 847.33 120.952L787.288 225.049C786.57 226.294 786.497 227.805 787.082 229.117C787.673 230.427 788.857 231.375 790.261 231.663L797.9 233.231L800.94 244.573L781.886 256.007L755.47 240.741L755.835 218.506L767.168 215.47L772.344 221.308C773.296 222.381 774.708 222.934 776.137 222.79C776.378 222.766 776.615 222.721 776.842 222.66C777.975 222.356 778.959 221.614 779.553 220.578L839.595 116.482C840.187 115.455 840.348 114.237 840.041 113.091C839.733 111.944 838.985 110.97 837.959 110.377L817.841 98.7503C816.815 98.1574 815.598 97.9955 814.452 98.3025L814.444 98.3048C813.295 98.617 812.318 99.3714 811.732 100.401L747.547 212.842C747.517 212.897 747.536 212.962 747.507 213.017C747.193 213.614 746.971 214.266 746.957 214.989L746.495 243.223L745.899 280.051C745.872 281.672 746.728 283.182 748.134 283.994C749.175 284.596 750.393 284.744 751.522 284.442C751.918 284.335 752.299 284.174 752.662 283.96L784.226 265.028L808.423 250.51C808.496 250.467 808.534 250.393 808.604 250.345C808.851 250.178 809.048 249.962 809.259 249.746C809.465 249.535 809.677 249.339 809.834 249.096C809.877 249.031 809.945 248.993 809.985 248.926L875.174 137.065C875.771 136.042 875.936 134.819 875.631 133.667C875.328 132.519 874.578 131.54 873.548 130.945L853.43 119.318Z" fill="#FBB03B"/>
<path d="M889.343 77.1084L856.522 58.1407C848.253 53.3615 836.905 56.3886 832.115 64.694L820.59 84.8852C819.371 87.024 820.103 89.742 822.235 90.9739L878.08 123.248C879.148 123.865 880.365 123.991 881.469 123.695C882.568 123.401 883.552 122.69 884.17 121.63L895.886 101.528C898.272 97.3911 898.905 92.5761 897.669 87.9641C896.433 83.3521 893.478 79.4978 889.343 77.1084Z" fill="#FB3B3B"/>
</g>
<path d="M108.224 78.6183C111.875 79.0565 114.723 80.2249 116.768 82.1236C118.958 83.8762 120.054 86.7972 120.054 90.8866C120.054 95.1221 118.812 98.2622 116.329 100.307C113.993 102.352 110.633 103.228 106.252 102.936C94.1297 102.206 84.4904 101.767 77.3339 101.621C76.1655 116.665 75.2162 134.775 74.4859 155.952C73.9017 179.905 73.6096 201.082 73.6096 219.484C73.6096 224.158 72.6603 227.444 70.7616 229.343C69.009 231.241 65.5768 232.191 60.465 232.191C55.2072 232.191 51.4099 231.168 49.0731 229.124C46.7363 227.079 45.5679 223.574 45.5679 218.608C45.5679 200.936 46.1521 180.051 47.3205 155.952L49.0731 124.186C49.2191 118.198 49.5842 110.75 50.1685 101.84C44.1804 101.986 36.2206 102.425 26.2891 103.155L21.0313 103.593L18.8406 103.812C15.1893 103.812 12.2683 102.644 10.0775 100.307C8.03279 97.9701 7.01044 94.903 7.01044 91.1057C7.01044 84.5334 10.5887 80.7361 17.7452 79.7137C29.1371 78.1072 45.3488 77.3039 66.3801 77.3039C85.3667 77.3039 99.3146 77.742 108.224 78.6183ZM189.08 230.438C171.262 230.438 156.876 225.765 145.922 216.417C135.114 207.07 129.71 193.414 129.71 175.45C129.71 163.912 132.047 153.761 136.721 144.998C141.394 136.089 148.113 129.152 156.876 124.186C165.639 119.22 175.935 116.738 187.765 116.738C199.449 116.738 209.819 119.22 218.874 124.186C228.075 129.152 235.159 136.162 240.125 145.218C245.236 154.127 247.792 164.496 247.792 176.326C247.792 193.706 242.461 207.07 231.8 216.417C221.138 225.765 206.898 230.438 189.08 230.438ZM188.642 209.626C198.573 209.626 206.387 206.851 212.083 201.301C217.925 195.605 220.846 187.207 220.846 176.107C220.846 165.007 217.998 155.806 212.302 148.504C206.606 141.201 198.719 137.55 188.642 137.55C178.856 137.55 171.043 140.982 165.201 147.846C159.359 154.711 156.438 163.912 156.438 175.45C156.438 186.988 159.359 195.605 165.201 201.301C171.189 206.851 179.002 209.626 188.642 209.626ZM266.318 158.143C264.127 158.143 262.302 157.194 260.841 155.295C259.527 153.396 258.869 151.133 258.869 148.504C258.869 145.875 259.6 143.757 261.06 142.15C262.667 140.398 264.638 139.522 266.975 139.522C280.412 139.814 289.248 139.96 293.483 139.96C302.246 139.96 312.324 139.595 323.716 138.864C327.075 138.718 329.558 139.522 331.164 141.274C332.917 142.881 333.793 145.218 333.793 148.285C333.793 150.913 332.844 153.104 330.945 154.857C329.193 156.609 326.856 157.559 323.935 157.705C314.296 157.997 295.09 158.143 266.318 158.143ZM386.344 77.0848C415.847 79.4216 438.777 86.6511 455.134 98.7733C471.492 110.896 479.671 128.276 479.671 150.913C479.671 166.541 475.727 180.197 467.841 191.881C459.954 203.565 448.635 212.62 433.884 219.046C419.133 225.472 401.826 228.686 381.963 228.686H366.847C362.611 228.686 359.544 227.955 357.645 226.495C355.747 224.888 354.797 222.259 354.797 218.608C354.797 212.328 357.718 209.188 363.56 209.188H369.256L365.97 96.1444H364.656C357.937 96.1444 354.578 93.0043 354.578 86.7242C354.578 79.8598 358.083 76.4276 365.094 76.4276H367.504C368.964 73.7987 372.031 72.4842 376.705 72.4842C381.525 72.4842 384.738 74.0177 386.344 77.0848ZM390.945 208.969C403.943 208.092 415.481 205.317 425.559 200.644C435.636 195.824 443.523 189.179 449.219 180.708C455.061 172.237 457.982 162.305 457.982 150.913C457.982 133.241 451.483 120.316 438.484 112.137C425.632 103.958 408.763 98.9194 387.878 97.0207L390.945 208.969ZM603.726 212.474C605.917 212.766 607.596 213.496 608.765 214.665C610.079 215.833 610.737 217.805 610.737 220.58C610.737 223.209 610.079 225.399 608.765 227.152C607.45 228.905 605.625 229.781 603.288 229.781C597.3 229.781 592.772 228.905 589.705 227.152C586.784 225.399 584.082 222.113 581.599 217.294C575.465 227.225 564.073 232.191 547.424 232.191C530.482 232.191 517.994 227.079 509.961 216.855C501.929 206.486 497.912 193.633 497.912 178.298C497.912 168.074 499.957 158.654 504.046 150.037C508.136 141.42 514.124 134.556 522.011 129.444C529.897 124.332 539.099 121.776 549.614 121.776C556.333 121.776 562.248 123.091 567.359 125.72C572.617 128.349 576.561 131.927 579.19 136.454L579.847 130.978C580.431 125.72 583.571 123.091 589.267 123.091C593.064 123.091 595.766 123.967 597.373 125.72C598.979 127.326 599.637 129.371 599.345 131.854C597.884 142.808 597.008 151.06 596.716 156.609C596.278 161.867 596.058 168.732 596.058 177.203V191.662C596.058 199.256 596.424 204.514 597.154 207.435C598.03 210.356 600.221 212.036 603.726 212.474ZM574.589 191.662C574.735 185.089 574.808 176.107 574.808 164.715C574.808 158.727 573.494 153.835 570.865 150.037C568.382 146.24 565.242 143.465 561.444 141.712C557.793 139.96 554.069 139.083 550.272 139.083C543.699 139.083 538.076 141.055 533.403 144.998C528.875 148.796 525.443 153.688 523.106 159.677C520.915 165.665 519.82 171.872 519.82 178.298C519.82 188.083 522.084 196.627 526.611 203.93C531.285 211.086 538.514 214.665 548.3 214.665C556.041 214.665 562.321 212.693 567.14 208.75C571.96 204.806 574.443 199.11 574.589 191.662ZM666.188 287.179C662.975 287.179 660.273 286.157 658.083 284.112C655.892 282.213 654.797 279.876 654.797 277.101C654.797 275.787 655.089 274.545 655.673 273.377C662.391 255.997 668.817 238.69 674.952 221.456C668.671 217.221 662.245 209.918 655.673 199.548C649.247 189.033 643.478 177.495 638.366 164.934C633.254 152.228 629.457 140.69 626.974 130.32C626.682 129.152 626.536 128.057 626.536 127.034C626.536 124.551 627.485 122.507 629.384 120.9C631.428 119.293 634.057 118.49 637.27 118.49C640.045 118.49 642.017 119.074 643.185 120.243C644.5 121.411 645.449 123.237 646.033 125.72C658.594 167.782 670.643 192.684 682.181 200.425C687.293 182.899 694.084 157.632 702.555 124.624C703.285 122.141 704.308 120.389 705.622 119.367C706.937 118.344 708.908 117.833 711.537 117.833C715.042 117.833 717.817 118.636 719.862 120.243C722.053 121.703 723.294 123.675 723.586 126.158C723.732 126.742 723.659 127.545 723.367 128.568C718.986 146.094 715.042 161.137 711.537 173.697C708.032 186.258 704.089 199.037 699.707 212.036C696.348 222.113 692.186 234.162 687.22 248.183C682.4 262.204 678.53 272.866 675.609 280.168C674.732 282.505 673.564 284.258 672.104 285.426C670.789 286.595 668.817 287.179 666.188 287.179Z" fill="black"/>
<path d="M303.972 305.464C362.07 297.291 427.609 282.498 486.578 292.741C531.857 300.606 573.485 323.405 619.223 331.956C657.513 339.114 701.395 326.767 729.921 302.186" stroke="#FBB03B" stroke-width="10.4818" stroke-linecap="round" stroke-linejoin="round"/>
</g>
<defs>
<clipPath id="clip0">
<rect width="937" height="382" fill="white"/>
</clipPath>
<clipPath id="clip1">
<rect width="196.487" height="196.487" fill="white" transform="translate(696.353 95.8052) rotate(-15)"/>
</clipPath>
</defs>
</svg>
